<svg width="12" height="12" viewBox="0 0 12 12" fill="none" xmlns="http://www.w3.org/2000/svg">
<path d="M6.375 2.0625C6.375 1.91332 6.31574 1.77024 6.21025 1.66475C6.10476 1.55926 5.96168 1.5 5.8125 1.5C5.66332 1.5 5.52024 1.55926 5.41475 1.66475C5.30926 1.77024 5.25 1.91332 5.25 2.0625V5.25H2.0625C1.91332 5.25 1.77024 5.30926 1.66475 5.41475C1.55926 5.52024 1.5 5.66332 1.5 5.8125C1.5 5.96168 1.55926 6.10476 1.66475 6.21025C1.77024 6.31574 1.91332 6.375 2.0625 6.375H5.25V9.5625C5.25 9.71168 5.30926 9.85476 5.41475 9.96025C5.52024 10.0657 5.66332 10.125 5.8125 10.125C5.96168 10.125 6.10476 10.0657 6.21025 9.96025C6.31574 9.85476 6.375 9.71168 6.375 9.5625V6.375H9.5625C9.71168 6.375 9.85476 6.31574 9.96025 6.21025C10.0657 6.10476 10.125 5.96168 10.125 5.8125C10.125 5.66332 10.0657 5.52024 9.96025 5.41475C9.85476 5.30926 9.71168 5.25 9.5625 5.25H6.375V2.0625Z" fill="#109D49"/>
</svg>
