<svg width="100" height="30" viewBox="0 0 100 30" fill="none" xmlns="http://www.w3.org/2000/svg">
<path d="M4.72011 27.6299C3.80862 27.6299 3.05153 27.5491 2.4487 27.3872C1.84587 27.2256 1.36452 26.9573 1.00433 26.5824C0.644145 26.2076 0.386847 25.704 0.232439 25.0719C0.0780299 24.4397 0.000976562 23.6532 0.000976562 22.7122V17.3758C0.000976562 16.435 0.0780299 15.6484 0.232439 15.0163C0.386847 14.3841 0.644145 13.8769 1.00433 13.4947C1.36452 13.1124 1.84587 12.8441 2.4487 12.6897C3.05153 12.5353 3.80862 12.4583 4.72011 12.4583H13.2321C13.7906 12.4583 14.2794 12.5353 14.6985 12.6897C15.1175 12.8441 15.4739 13.0352 15.768 13.2631C16.0619 13.4909 16.2973 13.7336 16.4736 13.9909C16.6501 14.248 16.7823 14.4796 16.8705 14.6854L14.9741 16.6259C14.8417 16.3319 14.6287 16.0636 14.3345 15.8211C14.0405 15.5785 13.6069 15.4573 13.0336 15.4573H4.74202C4.08057 15.4573 3.61749 15.5969 3.35279 15.8762C3.08824 16.1556 2.95589 16.6554 2.95589 17.3758V22.7343C2.95589 23.0578 2.97795 23.3371 3.02207 23.5724C3.06619 23.8074 3.15064 24.006 3.27574 24.1678C3.40054 24.3294 3.58078 24.4506 3.81587 24.5316C4.05111 24.6124 4.35977 24.6529 4.74202 24.6529H13.1438C13.7319 24.6529 14.1655 24.5316 14.4448 24.2889C14.7242 24.0465 14.93 23.7781 15.0623 23.4841L16.9587 25.4026C16.8705 25.6084 16.7382 25.84 16.5618 26.0973C16.3854 26.3544 16.1501 26.5971 15.8561 26.8249C15.5621 27.0529 15.2057 27.244 14.7866 27.3983C14.3676 27.5527 13.8789 27.6299 13.3202 27.6299H4.72011V27.6299ZM33.6078 27.6299L31.7114 24.1016H22.5599L20.6635 27.6299H17.2674L25.581 12.4583H28.6903L37.0038 27.6299H33.6078V27.6299ZM27.1467 15.4352L23.7066 21.7199H30.5867L27.1467 15.4352ZM51.5801 27.6299L46.3317 22.6681H41.5464V27.6299H38.5474V12.4583H50.9406C51.749 12.4583 52.4291 12.5429 52.9804 12.7118C53.5317 12.8808 53.9763 13.1492 54.3145 13.5168C54.6526 13.8842 54.8989 14.3695 55.0533 14.9722C55.2075 15.5748 55.2847 16.3026 55.2847 17.1552V18.0813C55.2847 19.0076 55.1929 19.7647 55.0092 20.3527C54.8253 20.9408 54.5276 21.4038 54.1159 21.742C53.7044 22.0801 53.1751 22.3117 52.5283 22.4366C51.8815 22.5616 51.0876 22.6241 50.1466 22.6241L55.7699 27.6299H51.5801V27.6299ZM52.3298 17.6624C52.3298 16.9273 52.2452 16.3798 52.0763 16.0196C51.9071 15.6594 51.4993 15.4793 50.8524 15.4793H41.5464V20.1764H50.8524C51.3816 20.1764 51.7601 20.0441 51.9881 19.7794C52.2159 19.5148 52.3298 19.0517 52.3298 18.3901V17.6624V17.6624ZM57.5561 27.6299V12.4583H70.3242C71.2503 12.4583 72.0184 12.5391 72.6285 12.7007C73.2386 12.8626 73.7237 13.1381 74.0839 13.5276C74.4441 13.9173 74.7014 14.4245 74.8557 15.0494C75.0101 15.6741 75.0873 16.4496 75.0873 17.3758V22.7122C75.0873 23.6385 75.0101 24.4175 74.8557 25.0498C74.7014 25.682 74.4441 26.1891 74.0839 26.5714C73.7237 26.9536 73.2386 27.2256 72.6285 27.3872C72.0184 27.5491 71.2503 27.6299 70.3242 27.6299H57.5561ZM72.1103 17.3978C72.1103 16.6481 71.9779 16.1372 71.7134 15.8652C71.4487 15.5933 70.9856 15.4573 70.3242 15.4573H60.5552V24.6529H70.3242C71.0003 24.6529 71.4671 24.5206 71.7244 24.2559C71.9816 23.9913 72.1103 23.4841 72.1103 22.7343V17.3978ZM77.6673 27.6299V12.4583H92.2436V15.4573H80.6443V18.8091H91.9127V21.2568H80.6443V24.6529H92.2436V27.6299H77.6673V27.6299Z" fill="#FF5C49"/>
<path d="M44.2909 8.3694C44.73 8.63849 45.1034 8.82523 45.4112 8.93446C45.7174 9.04218 46.0167 9.09597 46.3095 9.09597C46.6039 9.09597 46.8411 9.0304 47.021 8.90092C47.1993 8.77129 47.2884 8.60479 47.2884 8.40128C47.2884 8.11029 46.9705 7.78063 46.333 7.41727C46.2304 7.35834 46.1514 7.31136 46.0959 7.27933L45.613 7.00677C45.1438 6.74101 44.7955 6.4399 44.5703 6.10525C44.3432 5.77044 44.2305 5.39031 44.2305 4.96637C44.2305 4.39119 44.4474 3.92026 44.8813 3.55176C45.3137 3.18342 45.8738 3 46.56 3C46.8142 3 47.0882 3.03037 47.3827 3.08929C47.6787 3.14806 48.0067 3.24068 48.3684 3.36502V5.03874C48.0236 4.82344 47.6973 4.65695 47.3877 4.53925C47.0783 4.42141 46.8158 4.36263 46.5987 4.36263C46.3582 4.36263 46.1698 4.41476 46.032 4.51735C45.8941 4.61993 45.825 4.7612 45.825 4.93781C45.825 5.06231 45.8654 5.17834 45.9478 5.28606C46.0302 5.39545 46.153 5.4929 46.3179 5.58204L47.1556 6.04466C47.857 6.43325 48.328 6.79147 48.5702 7.11948C48.8124 7.4493 48.9336 7.83774 48.9336 8.28857C48.9336 8.98492 48.6964 9.54847 48.222 9.9774C47.7461 10.4063 47.1169 10.62 46.3313 10.62C46.0655 10.62 45.7762 10.5914 45.4633 10.536C45.1522 10.4804 44.8073 10.3929 44.434 10.2752L44.2909 8.3694V8.3694Z" fill="#1669FE"/>
<path d="M27.6084 10.388L29.0919 3.01025H29.2147L31.9111 7.66306L34.4545 3.01025H34.5823L36.0761 10.388H34.4545L33.849 7.12475L31.9314 10.6505H31.817L29.758 7.07595L29.1306 10.388H27.6084Z" fill="#1669FE"/>
<path d="M24.8232 10.388V3.24243H26.5288V10.388H24.8232Z" fill="#1669FE"/>
<path d="M16.7969 10.388L19.3638 6.6923L16.8322 3.24243H18.9146L20.3882 5.28283L21.7726 3.24243H23.6295L21.3285 6.54439L24.1443 10.388H22.045L20.3091 7.96398L18.664 10.388H16.7969Z" fill="#1669FE"/>
<path d="M8.99023 10.3879L12.6353 3.02026H12.7429L16.3073 10.3879H14.5227L14.0702 9.3483H11.1702L10.7076 10.3879H8.99023V10.3879ZM11.6647 8.11696H13.542L12.6151 5.87985L11.6647 8.11696Z" fill="#1669FE"/>
<path d="M0 10.388L1.48365 3.01025H1.60648L4.3029 7.66306L6.84611 3.01025H6.97408L8.4677 10.388H6.84611L6.24056 7.12475L4.32299 10.6505H4.20862L2.14979 7.07595L1.52233 10.388H0Z" fill="#1669FE"/>
<path d="M38.7483 5.38173V7.15743C38.7483 7.78564 38.8648 8.25566 39.0951 8.56796C39.3255 8.88055 39.6746 9.03708 40.1437 9.03708C40.5944 9.03708 40.9388 8.89052 41.1758 8.59984C41.4127 8.3093 41.4808 7.88611 41.4757 7.32997L41.4573 5.37599L43.1257 5.37402L43.183 7.17329C43.2158 8.19961 43.0798 9.2569 42.4103 9.85459C41.7014 10.4875 41.0016 10.5951 40.065 10.5951C39.1185 10.5951 38.3825 10.3107 37.8571 9.74068C37.3322 9.17154 37.0459 8.32803 37.0459 7.29779V5.38551L38.7483 5.38173V5.38173Z" fill="#1669FE"/>
<path fill-rule="evenodd" clip-rule="evenodd" d="M37.043 3.25122H38.7312V4.90575H37.043V3.25122Z" fill="#FF5C49"/>
<path fill-rule="evenodd" clip-rule="evenodd" d="M41.4424 3.25122H43.1305V4.90575H41.4424V3.25122Z" fill="#FF5C49"/>
<path d="M94.1768 10.8219V8.16357H95.3549C95.592 8.16357 95.7719 8.18775 95.8952 8.23534C96.0183 8.28308 96.1167 8.36724 96.1903 8.4878C96.2638 8.60852 96.3004 8.74223 96.3004 8.88818C96.3004 9.07688 96.2391 9.23597 96.1173 9.3653C95.9954 9.49463 95.8073 9.57622 95.5522 9.61157C95.6458 9.65614 95.7163 9.70071 95.7645 9.74392C95.8672 9.83805 95.9644 9.9562 96.0553 10.0979L96.5152 10.8219H96.0757L95.7243 10.2688C95.6222 10.1085 95.5374 9.98656 95.4713 9.90181C95.4045 9.81705 95.3449 9.75827 95.2924 9.72413C95.2405 9.69074 95.1866 9.66717 95.1321 9.65357C95.0925 9.64557 95.0277 9.64118 94.9366 9.64118H94.5294V10.8219H94.1768ZM94.5294 9.3369H95.2844C95.4453 9.3369 95.5702 9.32013 95.6606 9.28659C95.7509 9.25395 95.8197 9.20062 95.866 9.12704C95.913 9.05407 95.9366 8.97475 95.9366 8.88878C95.9366 8.76323 95.8914 8.65928 95.8005 8.57815C95.7095 8.49717 95.566 8.45683 95.3697 8.45683H94.5294V9.3369V9.3369Z" fill="white"/>
<path d="M95.0877 6.60522C95.885 6.60522 96.607 6.9284 97.1295 7.45085C97.6519 7.97345 97.9753 8.69533 97.9753 9.49276C97.9753 10.29 97.6519 11.0119 97.1295 11.5345C96.607 12.057 95.885 12.3803 95.0877 12.3803C94.2905 12.3803 93.5684 12.057 93.0458 11.5345C92.5234 11.0119 92.2002 10.29 92.2002 9.49276C92.2002 8.69533 92.5234 7.97345 93.0458 7.45085C93.5684 6.9284 94.2905 6.60522 95.0877 6.60522ZM96.9299 7.65043C96.4585 7.17904 95.807 6.88745 95.0877 6.88745C94.3683 6.88745 93.7169 7.17904 93.2454 7.65043C92.774 8.12181 92.4824 8.77329 92.4824 9.49276C92.4824 10.2121 92.774 10.8636 93.2454 11.3349C93.7169 11.8063 94.3683 12.0981 95.0877 12.0981C95.807 12.0981 96.4585 11.8063 96.9299 11.3349C97.4013 10.8636 97.693 10.2121 97.693 9.49276C97.693 8.77329 97.4013 8.12181 96.9299 7.65043Z" fill="white"/>
</svg>
