<svg width="209" height="30" viewBox="0 0 209 30" fill="none" xmlns="http://www.w3.org/2000/svg">
<path fill-rule="evenodd" clip-rule="evenodd" d="M208.48 9.19242L205.471 11.6601L203.94 11.6602L204.264 11.1378H171.48H152.891H108.11L110.091 7.24704H154.872H173.462H204.264L203.94 6.72461H205.471L208.48 9.19242ZM158.655 12.3447L154.152 21.1892H160.258L164.762 12.3447H158.655ZM107.497 12.3447L102.994 21.1892H108.939L111.514 16.1095H119.242L121.17 12.3447H107.497ZM128.087 12.2546C126.231 12.2546 124.538 13.2993 123.691 14.9385L120.467 21.2792H124.322L127.672 14.7043H133.473L133.04 15.551H128.267L127.024 18.0007H131.797L130.122 21.2792H133.977L138.57 12.2365H128.087V12.2545V12.2546ZM137.345 18.9194L136.066 21.4233H147.937C150.099 21.4233 151.846 19.676 151.846 17.5145C151.846 16.4517 150.981 15.5871 149.919 15.5871H143.02L143.524 14.5964H152.675L153.936 12.1285L144.299 12.1284C142.389 12.1284 140.228 13.1372 139.057 15.587C138.516 16.6678 139.291 17.9467 140.498 17.9467H147.775L147.271 18.9374H137.345V18.9194ZM175.75 17.9467L176.956 15.587H171.246C169.391 15.587 167.698 16.6317 166.851 18.2889L166.491 18.9913C165.932 20.0901 166.725 21.3871 167.968 21.3871L179.046 21.3872L182.667 14.2901C183.153 13.3173 182.45 12.1645 181.37 12.1645H170.49L169.193 14.7224H178.487L178.037 15.587L176.398 18.8293L170.49 18.8294L170.904 17.9648L175.749 17.9647V17.9467H175.75ZM197.744 12.0564C198.788 12.0564 199.473 13.1552 198.987 14.0919L194.087 23.7289C193.312 25.26 191.727 26.2328 189.998 26.2328H138.156L138.786 26.9894H137.543L135.094 24.9719L137.543 22.9544H138.786L138.156 23.711L190.088 23.7109L191.421 21.099L184.126 21.0991C183.045 21.0991 182.342 19.9462 182.829 18.9914L185.26 14.236C185.945 12.9029 187.314 12.0563 188.827 12.0563H197.744V12.0564ZM194.825 14.4161H189.079L186.954 18.5952H192.7L194.825 14.4161Z" fill="black"/>
<path fill-rule="evenodd" clip-rule="evenodd" d="M154.566 6.94092L152.585 10.8317H171.175L173.156 6.94092H154.566Z" fill="#38AC49"/>
<path fill-rule="evenodd" clip-rule="evenodd" d="M109.785 6.94092L107.804 10.8317H152.585L154.566 6.94092H109.785Z" fill="#E98824"/>
<path fill-rule="evenodd" clip-rule="evenodd" d="M205.166 6.41846H203.635L203.959 6.94089H173.156L171.175 10.8316H203.959L203.635 11.3721H205.166L208.192 8.88627L205.166 6.41846Z" fill="#E98824"/>
<path fill-rule="evenodd" clip-rule="evenodd" d="M161.285 10.2012C162.799 9.42664 163.519 10.1472 163.681 10.3634L163.141 10.7237C162.564 10.2012 161.592 10.4895 161.321 10.5975L161.285 10.2012ZM161.159 9.10246L161.213 9.60689C163.483 8.454 164.384 9.62489 164.51 9.80504L165.176 9.37273C164.6 8.18394 162.24 8.38198 161.159 9.10256V9.10246ZM161.033 7.98569L161.087 8.47211C163.933 7.2112 165.374 7.82365 166.005 8.81429L166.689 8.36398C165.465 6.4006 162.51 7.04896 161.033 7.98569Z" fill="white"/>
<path fill-rule="evenodd" clip-rule="evenodd" d="M160.853 6.41841C164.185 4.49104 167.59 4.94135 168.653 7.03077L167.752 7.62521C166.779 5.82397 163.663 5.48168 160.925 7.1569L160.853 6.41841ZM160.637 4.45493L160.745 5.48168C164.365 3.5362 168.274 3.77036 169.715 6.32829L171.012 5.46368C169.896 2.40142 163.717 2.34731 160.637 4.45493H160.637Z" fill="#E98824"/>
<path fill-rule="evenodd" clip-rule="evenodd" d="M118.936 15.8213H111.209L108.633 20.9011H102.688L107.192 12.0566H120.864L118.936 15.8213ZM127.799 11.9486C125.944 11.9486 124.25 12.9933 123.404 14.6325L120.179 20.9732H124.034L127.385 14.3983H133.185L132.753 15.2449H127.961L126.718 17.6947H131.492L129.834 20.9732H133.689L138.283 11.9305H127.799V11.9485V11.9486ZM152.387 14.2723L153.648 11.8045L144.011 11.8044C142.101 11.8044 139.94 12.8132 138.751 15.2629C138.211 16.3437 138.985 17.6227 140.192 17.6227H147.469L146.965 18.6134H137.04L135.761 21.1173H147.631C149.793 21.1173 151.54 19.37 151.54 17.2085C151.54 16.1457 150.676 15.263 149.613 15.263H142.714L143.218 14.2723H152.387Z" fill="#E98824"/>
<path fill-rule="evenodd" clip-rule="evenodd" d="M159.971 20.8829H153.864L158.367 12.0384H164.474L159.971 20.8829ZM181.064 11.8582H170.184L168.887 14.4161H178.2L177.75 15.2808L176.11 18.5231H170.202L170.616 17.6585H175.48L176.687 15.2988H170.977C169.121 15.2988 167.428 16.3435 166.582 18.0007L166.221 18.7032C165.663 19.8019 166.455 21.099 167.698 21.099L178.776 21.0991L182.397 14.0018C182.865 13.0111 182.145 11.8582 181.064 11.8582H181.064ZM197.456 11.7682C198.501 11.7682 199.185 12.8669 198.699 13.8037L193.799 23.4406C193.025 24.9717 191.44 25.9446 189.728 25.9446H137.85L138.499 26.7011H137.238L134.788 24.6837L137.238 22.6842H138.499L137.85 23.4407L189.782 23.4406L191.115 20.8287L183.82 20.8288C182.739 20.8288 182.037 19.6759 182.523 18.7212L184.955 13.9657C185.639 12.6327 187.008 11.7861 188.522 11.7861H197.456V11.7681V11.7682ZM194.52 14.1278H188.774L186.648 18.3069L192.394 18.307L194.52 14.1278Z" fill="#38AC49"/>
<path fill-rule="evenodd" clip-rule="evenodd" d="M177.569 9.19238H174.002C173.876 9.19238 173.786 9.06625 173.858 8.94022L173.948 8.76008C174.002 8.65195 174.111 8.59784 174.219 8.59784H177.785C177.911 8.59784 178.001 8.72397 177.929 8.85L177.839 9.03024C177.803 9.12027 177.695 9.19238 177.569 9.19238ZM185.621 9.19238C185.747 9.19238 185.855 9.12027 185.891 9.01214L185.981 8.832C186.035 8.72387 185.963 8.57983 185.837 8.57983H182.271C182.144 8.57983 182.036 8.65195 181.982 8.74207L181.892 8.92222C181.838 9.03034 181.91 9.17438 182.036 9.17438H185.621V9.19238ZM193.673 9.19238C193.799 9.19238 193.907 9.12027 193.961 9.01214L194.051 8.832C194.105 8.72387 194.033 8.57983 193.907 8.57983H190.34C190.214 8.57983 190.106 8.65195 190.052 8.74207L189.962 8.92222C189.908 9.03034 189.98 9.17438 190.106 9.17438H193.673V9.19238ZM201.725 9.19238C201.851 9.19238 201.959 9.12027 202.013 9.01214L202.103 8.832C202.157 8.72387 202.085 8.57983 201.959 8.57983H198.392C198.266 8.57983 198.158 8.65195 198.122 8.74207L198.032 8.92222C197.978 9.03034 198.05 9.17438 198.176 9.17438H201.725V9.19238ZM149.847 24.8999C149.937 24.8999 150.009 24.8458 150.045 24.7737L150.099 24.6476C150.135 24.5756 150.081 24.4675 149.991 24.4675H147.469C147.379 24.4675 147.307 24.5215 147.271 24.5936L147.199 24.7197C147.163 24.7918 147.217 24.8999 147.307 24.8999H149.847ZM162.06 24.8999C162.15 24.8999 162.222 24.8458 162.258 24.7737L162.312 24.6476C162.348 24.5756 162.294 24.4675 162.204 24.4675H159.682C159.592 24.4675 159.52 24.5215 159.484 24.5936L159.412 24.7197C159.376 24.7918 159.43 24.8999 159.52 24.8999H162.06ZM174.291 24.8999C174.381 24.8999 174.453 24.8458 174.489 24.7737L174.543 24.6476C174.579 24.5756 174.525 24.4675 174.435 24.4675H171.913C171.823 24.4675 171.751 24.5215 171.715 24.5936L171.643 24.7197C171.607 24.7918 171.661 24.8999 171.751 24.8999H174.291ZM186.504 24.8999C186.594 24.8999 186.666 24.8458 186.702 24.7737L186.756 24.6476C186.792 24.5756 186.738 24.4675 186.648 24.4675H184.126C184.036 24.4675 183.964 24.5215 183.928 24.5936L183.856 24.7197C183.82 24.7918 183.874 24.8999 183.964 24.8999H186.504Z" fill="#EDC91A"/>
<path fill-rule="evenodd" clip-rule="evenodd" d="M100.4 25.6565L101.427 23.639H103.246L103.156 23.8011H101.589L101.211 24.5216H102.616L102.526 24.6837L101.121 24.6838L100.707 25.4764L102.31 25.4763L102.22 25.6385L100.4 25.6386V25.6566L100.4 25.6565ZM103.931 24.8279C103.445 24.8819 103.138 25.026 103.012 25.2602C102.976 25.3323 102.958 25.3863 102.976 25.4403C102.976 25.4943 103.012 25.5304 103.048 25.5664C103.084 25.6025 103.157 25.6205 103.229 25.6386C103.301 25.6566 103.373 25.6566 103.463 25.6566C103.607 25.6566 103.751 25.6386 103.895 25.6026C104.039 25.5665 104.183 25.4944 104.327 25.4224C104.309 25.4404 104.309 25.4764 104.291 25.4944C104.291 25.5124 104.291 25.5305 104.291 25.5665C104.291 25.5846 104.309 25.6026 104.327 25.6206C104.345 25.6386 104.363 25.6386 104.399 25.6386C104.435 25.6386 104.472 25.6386 104.49 25.6386C104.526 25.6386 104.562 25.6386 104.598 25.6206C104.634 25.6206 104.67 25.6026 104.688 25.6026L104.76 25.4764C104.652 25.4944 104.58 25.5124 104.562 25.4944C104.544 25.4764 104.544 25.4404 104.58 25.3683L104.976 24.5758C105.012 24.4857 105.03 24.4137 105.03 24.3597C105.03 24.3056 104.994 24.2515 104.94 24.2155C104.886 24.1795 104.832 24.1615 104.742 24.1434C104.67 24.1254 104.58 24.1254 104.472 24.1254C104.363 24.1254 104.255 24.1254 104.147 24.1434C104.039 24.1614 103.949 24.1974 103.859 24.2335C103.769 24.2695 103.679 24.3236 103.607 24.3777C103.535 24.4317 103.463 24.5038 103.409 24.5938L103.643 24.5937C103.679 24.5216 103.733 24.4856 103.787 24.4316C103.841 24.3956 103.895 24.3595 103.967 24.3234C104.021 24.3054 104.093 24.2874 104.165 24.2694C104.237 24.2514 104.309 24.2514 104.399 24.2514C104.58 24.2514 104.688 24.2874 104.742 24.3415C104.796 24.3956 104.796 24.4677 104.742 24.5577C104.724 24.5757 104.706 24.6117 104.688 24.6477C104.67 24.6837 104.634 24.7018 104.58 24.7198C104.544 24.7378 104.471 24.7378 104.417 24.7559C104.345 24.7559 104.291 24.7739 104.255 24.7739L103.931 24.8279ZM104.49 25.116C104.453 25.1882 104.399 25.2602 104.327 25.2962C104.255 25.3502 104.183 25.3863 104.093 25.4223C104.003 25.4583 103.913 25.4763 103.823 25.4944C103.733 25.5124 103.643 25.5124 103.535 25.5124C103.481 25.5124 103.427 25.5124 103.391 25.4944C103.337 25.4764 103.301 25.4764 103.283 25.4404C103.247 25.4224 103.229 25.3864 103.229 25.3503C103.229 25.3143 103.229 25.2782 103.247 25.2422C103.301 25.152 103.391 25.062 103.499 25.026C103.625 24.972 103.769 24.9539 103.949 24.9359C104.057 24.9359 104.147 24.9179 104.255 24.9179C104.363 24.9179 104.471 24.8819 104.58 24.8639L104.489 25.116H104.49ZM105.714 25.1881C105.678 25.2602 105.678 25.3142 105.678 25.3862C105.678 25.4403 105.714 25.4943 105.751 25.5483C105.787 25.6025 105.859 25.6205 105.931 25.6565C106.003 25.6745 106.111 25.6926 106.219 25.6926C106.327 25.6926 106.453 25.6926 106.561 25.6745C106.669 25.6565 106.759 25.6385 106.849 25.6025C106.939 25.5664 107.011 25.5303 107.083 25.4763C107.156 25.4223 107.21 25.3682 107.246 25.2962C107.3 25.2061 107.3 25.134 107.264 25.08C107.228 25.026 107.173 24.9899 107.083 24.9539C107.011 24.9179 106.921 24.8999 106.813 24.8818C106.705 24.8638 106.615 24.8458 106.543 24.8278C106.453 24.8098 106.399 24.7738 106.345 24.7376C106.309 24.7016 106.291 24.6475 106.327 24.5935C106.363 24.5214 106.435 24.4674 106.543 24.4134C106.651 24.3594 106.759 24.3412 106.903 24.3412C107.047 24.3412 107.155 24.3593 107.228 24.4134C107.3 24.4674 107.318 24.5395 107.282 24.6475H107.516C107.57 24.4854 107.552 24.3594 107.462 24.2872C107.371 24.2152 107.209 24.1792 106.993 24.1792C106.777 24.1792 106.579 24.2152 106.417 24.2872C106.255 24.3594 106.147 24.4675 106.074 24.5935C106.02 24.6835 106.02 24.7556 106.056 24.8096C106.092 24.8637 106.147 24.8997 106.237 24.9357C106.309 24.9717 106.399 24.9897 106.507 25.0078C106.615 25.0258 106.705 25.0438 106.795 25.0618C106.885 25.0798 106.939 25.1158 106.993 25.1339C107.029 25.17 107.047 25.2241 107.011 25.2961C106.993 25.3321 106.975 25.3682 106.921 25.4042C106.885 25.4402 106.849 25.4582 106.795 25.4943C106.741 25.5123 106.687 25.5483 106.615 25.5483C106.543 25.5663 106.471 25.5663 106.381 25.5663C106.2 25.5663 106.092 25.5483 106.02 25.4942C105.948 25.4402 105.93 25.3501 105.966 25.2241L105.714 25.2242V25.1881H105.714ZM107.714 26.1968C107.75 26.1968 107.768 26.2148 107.804 26.2148C107.84 26.2148 107.876 26.2148 107.912 26.2148C107.984 26.2148 108.056 26.1968 108.128 26.1788C108.2 26.1428 108.272 26.1067 108.344 26.0527C108.416 25.9987 108.489 25.9445 108.579 25.8725C108.651 25.8004 108.741 25.7104 108.831 25.6204L110.29 24.1973H110.037L108.777 25.4402V24.1973H108.524L108.542 25.6564C108.506 25.6924 108.47 25.7285 108.416 25.7645C108.38 25.8185 108.326 25.8546 108.29 25.8906C108.236 25.9266 108.182 25.9627 108.128 25.9988C108.074 26.0348 108.02 26.0528 107.948 26.0528C107.912 26.0528 107.876 26.0528 107.858 26.0528C107.822 26.0528 107.804 26.0528 107.768 26.0348L107.714 26.1969L107.714 26.1968ZM112.812 25.5123C112.776 25.5123 112.74 25.5303 112.704 25.5303C112.668 25.5303 112.631 25.5303 112.613 25.5303C112.559 25.5303 112.523 25.5303 112.505 25.5123C112.487 25.5123 112.469 25.4943 112.469 25.4763C112.469 25.4583 112.469 25.4403 112.487 25.4042C112.505 25.3862 112.505 25.3502 112.523 25.3141L113.028 24.3233H113.406L113.478 24.1792H113.118L113.316 23.7829H113.082L112.884 24.1792H112.614L112.541 24.3233H112.812L112.271 25.3861C112.217 25.4942 112.199 25.5662 112.253 25.6203C112.289 25.6563 112.361 25.6743 112.487 25.6743C112.541 25.6743 112.595 25.6743 112.649 25.6563C112.704 25.6383 112.74 25.6383 112.776 25.6383L112.812 25.5121V25.5123ZM114.703 25.6925C114.847 25.6925 114.973 25.6745 115.099 25.6385C115.225 25.6025 115.351 25.5483 115.459 25.4763C115.568 25.4042 115.676 25.3322 115.766 25.2422C115.856 25.152 115.928 25.044 115.982 24.936C116.036 24.8279 116.072 24.7378 116.072 24.6298C116.09 24.5397 116.072 24.4497 116.018 24.3957C115.982 24.3235 115.91 24.2695 115.82 24.2335C115.73 24.1975 115.604 24.1795 115.441 24.1795C115.279 24.1795 115.153 24.1975 115.009 24.2335C114.883 24.2695 114.757 24.3236 114.631 24.3957C114.523 24.4678 114.415 24.5398 114.343 24.6298C114.253 24.7199 114.181 24.828 114.127 24.936C114.054 25.0621 114.036 25.1702 114.036 25.2602C114.036 25.3503 114.054 25.4403 114.109 25.4943C114.163 25.5664 114.235 25.6025 114.325 25.6385C114.469 25.6745 114.577 25.6925 114.703 25.6925H114.703ZM115.766 24.9179C115.73 24.99 115.676 25.08 115.604 25.152C115.531 25.2242 115.459 25.2962 115.387 25.3502C115.297 25.4042 115.207 25.4583 115.117 25.4943C115.009 25.5303 114.901 25.5483 114.775 25.5483C114.667 25.5483 114.577 25.5303 114.505 25.5123C114.433 25.4763 114.397 25.4403 114.361 25.3862C114.325 25.3322 114.325 25.2601 114.325 25.1881C114.343 25.1159 114.361 25.0259 114.415 24.9359C114.451 24.8639 114.505 24.7738 114.577 24.7017C114.631 24.6297 114.721 24.5576 114.793 24.5036C114.883 24.4496 114.973 24.3955 115.063 24.3595C115.171 24.3234 115.279 24.3054 115.387 24.3054C115.514 24.3054 115.604 24.3234 115.676 24.3595C115.748 24.3955 115.784 24.4316 115.82 24.4856C115.838 24.5396 115.856 24.6117 115.838 24.6837C115.838 24.7558 115.802 24.846 115.766 24.9179ZM121.152 24.2154C121.188 24.1073 121.188 24.0173 121.17 23.9452C121.152 23.8731 121.116 23.8011 121.044 23.7471C120.971 23.6931 120.899 23.657 120.791 23.621C120.683 23.585 120.557 23.585 120.413 23.585C120.233 23.585 120.053 23.603 119.873 23.639C119.693 23.675 119.531 23.7471 119.368 23.8191C119.206 23.9092 119.062 24.0173 118.936 24.1433C118.81 24.2694 118.684 24.4315 118.594 24.6297C118.522 24.7739 118.468 24.8999 118.45 25.026C118.432 25.1521 118.432 25.2602 118.486 25.3683C118.54 25.4584 118.612 25.5484 118.738 25.6025C118.864 25.6565 119.026 25.6926 119.242 25.6926C119.422 25.6926 119.603 25.6746 119.747 25.6385C119.909 25.6025 120.053 25.5484 120.179 25.4763C120.305 25.4043 120.431 25.3322 120.521 25.2422C120.629 25.1521 120.719 25.062 120.791 24.9721L120.521 24.972C120.449 25.0441 120.377 25.1341 120.287 25.1882C120.197 25.2603 120.107 25.3143 120.017 25.3683C119.927 25.4223 119.819 25.4584 119.711 25.4764C119.603 25.5124 119.477 25.5124 119.368 25.5124C119.188 25.5124 119.044 25.4944 118.936 25.4403C118.846 25.3863 118.774 25.3142 118.738 25.2422C118.702 25.152 118.702 25.062 118.72 24.954C118.738 24.8459 118.792 24.7378 118.846 24.6298C118.9 24.5037 118.99 24.3957 119.08 24.2875C119.17 24.1794 119.278 24.0894 119.404 23.9994C119.531 23.9092 119.657 23.8552 119.801 23.8012C119.945 23.7472 120.107 23.7291 120.269 23.7291C120.503 23.7291 120.665 23.7651 120.774 23.8372C120.882 23.9093 120.918 24.0354 120.882 24.1975L121.152 24.1974V24.2154ZM121.908 24.9359C121.944 24.8639 121.998 24.7738 122.052 24.7017C122.106 24.6297 122.178 24.5576 122.251 24.5036C122.323 24.4496 122.413 24.4135 122.521 24.3775C122.629 24.3414 122.737 24.3234 122.863 24.3414L122.953 24.1613C122.791 24.1613 122.647 24.1793 122.521 24.2334C122.395 24.2874 122.269 24.3596 122.16 24.4676V24.4675L122.305 24.1973H122.07L121.476 25.6384H121.548L121.908 24.9358L121.908 24.9359ZM124.934 24.99C124.898 25.0621 124.844 25.1521 124.772 25.2062C124.718 25.2783 124.646 25.3323 124.556 25.3863C124.484 25.4403 124.394 25.4764 124.304 25.4944C124.214 25.5124 124.124 25.5304 124.034 25.5304C123.854 25.5304 123.746 25.4944 123.692 25.4223C123.656 25.3502 123.656 25.2602 123.728 25.1341L124.214 24.1794H123.98L123.493 25.1341C123.457 25.2063 123.421 25.2783 123.421 25.3503C123.421 25.4224 123.421 25.4764 123.457 25.5124C123.493 25.5664 123.547 25.6026 123.62 25.6206C123.692 25.6566 123.8 25.6566 123.926 25.6566C124.016 25.6566 124.088 25.6566 124.16 25.6386C124.232 25.6206 124.304 25.6026 124.358 25.5846C124.412 25.5665 124.484 25.5305 124.538 25.5124C124.592 25.4764 124.646 25.4584 124.682 25.4403L124.574 25.6385L124.809 25.6386L125.547 24.1975H125.331L124.935 24.9901L124.934 24.99ZM127.24 23.8912L127.366 23.6391H127.114L126.988 23.8912H127.24ZM126.321 25.6566L127.06 24.2155H126.826L126.087 25.6566H126.321ZM127.42 25.1882C127.384 25.2603 127.384 25.3143 127.384 25.3863C127.384 25.4404 127.402 25.4944 127.456 25.5484C127.492 25.6026 127.564 25.6206 127.636 25.6566C127.708 25.6746 127.817 25.6927 127.924 25.6927C128.051 25.6927 128.159 25.6927 128.267 25.6746C128.375 25.6566 128.465 25.6386 128.555 25.6026C128.645 25.5665 128.717 25.5304 128.789 25.4764C128.861 25.4224 128.915 25.3683 128.951 25.2963C129.005 25.2062 129.005 25.1341 128.969 25.0801C128.933 25.0261 128.879 24.99 128.807 24.954C128.735 24.918 128.645 24.9 128.537 24.8819C128.429 24.8639 128.339 24.8459 128.267 24.8279C128.177 24.8099 128.123 24.7739 128.069 24.7377C128.033 24.7017 128.015 24.6476 128.051 24.5936C128.087 24.5215 128.159 24.4675 128.267 24.4135C128.375 24.3595 128.483 24.3413 128.627 24.3413C128.771 24.3413 128.879 24.3594 128.951 24.4135C129.023 24.4675 129.041 24.5396 129.005 24.6476H129.239C129.293 24.4855 129.275 24.3595 129.185 24.2873C129.095 24.2153 128.933 24.1793 128.717 24.1793C128.501 24.1793 128.303 24.2153 128.14 24.2873C127.978 24.3595 127.87 24.4676 127.798 24.5936C127.744 24.6836 127.744 24.7557 127.78 24.8097C127.816 24.8638 127.87 24.8998 127.96 24.9358C128.032 24.9718 128.123 24.9898 128.231 25.0079C128.339 25.0259 128.429 25.0439 128.519 25.0619C128.609 25.0799 128.663 25.1159 128.717 25.134C128.753 25.1701 128.771 25.2242 128.735 25.2962C128.717 25.3322 128.681 25.3683 128.645 25.4043C128.609 25.4403 128.573 25.4583 128.519 25.4944C128.465 25.5124 128.41 25.5484 128.338 25.5484C128.266 25.5665 128.194 25.5664 128.104 25.5664C127.924 25.5664 127.816 25.5484 127.744 25.4943C127.672 25.4403 127.654 25.3502 127.69 25.2242L127.42 25.2243V25.1882H127.42ZM131.743 24.9721C131.887 24.7199 131.905 24.5218 131.815 24.3777C131.725 24.2335 131.545 24.1795 131.275 24.1795C131.131 24.1795 130.987 24.1975 130.861 24.2335C130.735 24.2695 130.609 24.3236 130.5 24.3957C130.392 24.4678 130.284 24.5398 130.194 24.6478C130.104 24.7379 130.032 24.846 129.978 24.954C129.924 25.0621 129.888 25.1521 129.87 25.2602C129.852 25.3503 129.87 25.4403 129.906 25.4943C129.942 25.5664 130.014 25.6205 130.104 25.6565C130.194 25.6925 130.32 25.7105 130.482 25.7105C130.609 25.7105 130.717 25.6925 130.825 25.6745C130.933 25.6565 131.023 25.6205 131.113 25.5663C131.203 25.5303 131.293 25.4762 131.365 25.4222C131.437 25.3682 131.509 25.2961 131.581 25.2241H131.329C131.239 25.3322 131.131 25.4042 130.987 25.4762C130.843 25.5302 130.699 25.5663 130.554 25.5663C130.446 25.5663 130.356 25.5483 130.284 25.5122C130.212 25.4762 130.176 25.4402 130.14 25.3862C130.104 25.3321 130.104 25.2781 130.104 25.206C130.104 25.1339 130.14 25.0618 130.176 24.9899L131.743 24.9898V24.9718V24.9721ZM130.284 24.828C130.338 24.7558 130.392 24.7018 130.446 24.6298C130.519 24.5758 130.591 24.5217 130.663 24.4677C130.735 24.4137 130.825 24.3776 130.915 24.3596C131.005 24.3235 131.095 24.3235 131.203 24.3235C131.311 24.3235 131.383 24.3415 131.455 24.3596C131.527 24.3776 131.563 24.4317 131.599 24.4677C131.635 24.5217 131.635 24.5758 131.635 24.6298C131.635 24.6838 131.599 24.7559 131.563 24.828H130.284H130.284Z" fill="black"/>
<path fill-rule="evenodd" clip-rule="evenodd" d="M83.6492 6.6936L87.1682 13.6867L79.7939 20.635L83.6492 6.6936Z" fill="#008C44"/>
<path fill-rule="evenodd" clip-rule="evenodd" d="M81.2057 6.6936L84.7022 13.6867L77.3281 20.635L81.2057 6.6936Z" fill="#F47920"/>
<path fill-rule="evenodd" clip-rule="evenodd" d="M17.5944 20.792L6.40982 11.6472L3.8995 20.7472H1.12012L4.99767 6.73857L16.1822 15.861L18.7151 6.71616H21.4943L17.5944 20.792ZM75.2655 17.9678H61.3241L63.6775 9.45054H77.619L77.9776 8.12811C78.0897 7.72471 78.0448 7.38853 77.8654 7.11956C77.6638 6.8506 77.3723 6.71616 76.9689 6.71616H63.0275C62.6464 6.71616 62.2654 6.8507 61.9292 7.11956C61.5929 7.38853 61.3688 7.72471 61.2567 8.12811L58.1637 19.3127C58.0516 19.7161 58.0965 20.0298 58.2758 20.2989C58.4775 20.5679 58.7689 20.7023 59.1499 20.7023L73.0915 20.7024C73.4725 20.7024 73.8536 20.5679 74.1897 20.2989C74.5259 20.03 74.7726 19.6938 74.8621 19.3127L75.2655 17.9677V17.9678ZM42.5411 6.71616L41.779 9.42813H48.8171L45.7016 20.68H48.4809L51.5964 9.42813H58.4551H58.4776L59.2171 6.71616H42.5411ZM38.8876 6.71616H24.9462C24.8565 6.71616 24.7893 6.71616 24.7221 6.73857C24.4084 6.78338 24.1393 6.91791 23.848 7.14197C23.5118 7.41094 23.2876 7.74712 23.1757 8.15052L20.0825 19.3351C19.9704 19.7385 20.0153 20.0523 20.1946 20.3213C20.3963 20.5903 20.6877 20.7247 21.0687 20.7247L22.4585 20.7248H33.6429H35.0103C35.3913 20.7248 35.7724 20.5903 36.1085 20.3214C36.4447 20.0525 36.6914 19.7162 36.7809 19.3351L37.1619 17.9902H34.405H23.243L24.0275 15.1212H35.1895L35.9516 12.3868H24.7895L25.5964 9.47284H36.7585H39.5154L39.8964 8.15042C40.0085 7.74702 39.9637 7.41084 39.7844 7.14187C39.5826 6.8505 39.2911 6.71606 38.8877 6.71606L38.8876 6.71616Z" fill="#6D6E71"/>
<path fill-rule="evenodd" clip-rule="evenodd" d="M0 24.8714L0.717177 22.3386L1.94988 24.1541L2.4206 22.4955H2.77919L2.06201 25.0059L0.829304 23.2126L0.358588 24.8713H0V24.8714ZM4.8862 24.8714H5.2896L4.8637 22.3386L2.95863 24.8714H3.33962L3.76553 24.2886H4.77408L4.8862 24.8714ZM4.01209 23.9524L4.61724 23.1454L4.72927 23.9524H4.01209ZM7.77762 22.8317L7.86724 22.4956H6.41038L6.32066 22.8317H6.85869L6.29835 24.8714H6.65694L7.21728 22.8317H7.77772H7.77762ZM8.74146 22.4956L8.06909 24.8714H8.45008L9.12245 22.4956H8.74146ZM9.79492 23.661C9.68279 24.042 9.7277 24.3558 9.95185 24.5801C10.1312 24.8041 10.3778 24.8939 10.6914 24.8939C11.05 24.8939 11.3638 24.7817 11.6777 24.5353C11.9915 24.2888 12.1932 24.0197 12.2828 23.6611C12.3726 23.325 12.35 23.0336 12.1707 22.787C11.9914 22.5405 11.7448 22.4284 11.4086 22.4284C11.0724 22.4284 10.7362 22.5405 10.4224 22.787C10.0862 23.0334 9.88444 23.3249 9.79492 23.661ZM10.1535 23.661C10.2207 23.4146 10.3776 23.2127 10.5794 23.0335C10.8035 22.8541 11.0277 22.7645 11.2742 22.7645C11.5206 22.7645 11.7001 22.8542 11.8345 23.0335C11.9466 23.2128 11.9915 23.4145 11.9017 23.661C11.8345 23.9075 11.6777 24.1318 11.4758 24.2886C11.2518 24.4679 11.0275 24.5352 10.7811 24.5352C10.557 24.5352 10.3777 24.4454 10.2431 24.2886C10.1086 24.1541 10.0862 23.93 10.1535 23.661ZM13.3139 24.8714L13.7846 23.2127L15.0173 25.006L15.7121 22.4956H15.3535L14.8828 24.1542L13.6501 22.3387L12.9552 24.8715H13.3139V24.8714ZM17.8415 24.8714H18.2449L17.819 22.3386L15.9363 24.8714H16.3173L16.7432 24.2886H17.7518L17.8415 24.8714ZM16.9897 23.9524L17.5948 23.1454L17.7294 23.9524H16.9897ZM19.7691 22.4956L19.0967 24.8714H20.1501L20.2398 24.5353H19.5449L20.1053 22.4956H19.7692H19.7691ZM24.5656 22.4956H23.2656L22.5933 24.8714H23.9157L24.0054 24.5353H23.0639L23.2879 23.7507H24.207L24.2967 23.4145H23.3777L23.5346 22.8542H24.476L24.5657 22.4956H24.5656ZM25.5966 22.4956L24.9242 24.8714H25.9776L26.0673 24.5353H25.3725L25.9553 22.4956H25.5967H25.5966ZM28.869 22.4956H27.5691L26.8967 24.8714H28.1967L28.2864 24.5353H27.3449L27.569 23.7507H28.488L28.5777 23.4145H27.6587L27.8157 22.8542H28.7571L28.8691 22.4956H28.869ZM31.626 22.6076C31.4467 22.4955 31.2674 22.4282 31.0656 22.4282C30.6846 22.4282 30.326 22.5628 29.9898 22.8542C29.7208 23.1006 29.5415 23.3697 29.4519 23.661C29.3621 23.9972 29.4071 24.2886 29.564 24.5353C29.7433 24.7817 29.9899 24.8939 30.3261 24.8939C30.5501 24.8939 30.7744 24.8266 31.0209 24.7145L31.1554 24.2886C31.0882 24.3334 31.0209 24.3783 30.9537 24.4231C30.8865 24.4679 30.8416 24.4904 30.7744 24.5129C30.6623 24.5577 30.5503 24.5801 30.4382 24.5801C30.1917 24.5801 30.0123 24.4904 29.9003 24.3335C29.7881 24.1542 29.7657 23.9525 29.833 23.706C29.9003 23.4595 30.0347 23.2352 30.2589 23.0784C30.483 22.8991 30.7072 22.8094 30.9537 22.8094C31.1778 22.8094 31.3571 22.8992 31.5141 23.0784L31.626 22.6077V22.6076ZM33.7777 22.8317L33.8675 22.4956H32.433L32.3433 22.8317H32.8813L32.321 24.8714H32.6795L33.2398 22.8317H33.7778H33.7777ZM35.1898 23.8403C35.3467 23.8179 35.5036 23.7282 35.6381 23.6162C35.7726 23.5041 35.8621 23.3473 35.9071 23.1903C35.9743 22.9663 35.9295 22.8093 35.8173 22.6748C35.7052 22.5627 35.5036 22.4955 35.1898 22.4955H34.7639L34.0915 24.8713H34.4501L34.7191 23.9074H34.7863L35.1898 24.8713H35.6381L35.1898 23.8403ZM35.0328 22.8317H35.1674C35.5036 22.8317 35.6381 22.9439 35.5484 23.1903C35.4812 23.4593 35.2794 23.5713 34.9208 23.5713H34.8087L35.0328 22.8317ZM36.714 23.661C36.6018 24.042 36.6467 24.3558 36.8485 24.5801C37.0278 24.8041 37.2744 24.8939 37.5881 24.8939C37.9243 24.8939 38.2604 24.7817 38.5743 24.5353C38.8881 24.2888 39.0898 24.0197 39.1795 23.6611C39.2692 23.325 39.2467 23.0336 39.0673 22.787C38.888 22.5405 38.6414 22.4284 38.3052 22.4284C37.9691 22.4284 37.6329 22.5405 37.319 22.787C37.0277 23.0334 36.8259 23.3249 36.714 23.661ZM37.0725 23.661C37.1398 23.4146 37.2966 23.2127 37.4985 23.0335C37.7225 22.8541 37.9468 22.7645 38.1932 22.7645C38.4397 22.7645 38.6191 22.8542 38.7536 23.0335C38.8657 23.2128 38.8881 23.4145 38.8208 23.661C38.7536 23.9075 38.5967 24.1318 38.3949 24.2886C38.1708 24.4679 37.9466 24.5352 37.7001 24.5352C37.476 24.5352 37.2967 24.4454 37.1622 24.2886C37.0277 24.1541 37.0052 23.93 37.0725 23.661ZM40.2329 24.8714L40.7036 23.2127L41.9363 25.006L42.6311 22.4956H42.2725L41.8018 24.1542L40.5691 22.3387L39.8518 24.8715H40.2329V24.8714ZM43.7742 22.4956L43.1018 24.8714H43.4604L44.1329 22.4956H43.7742ZM46.9794 22.6076C46.8224 22.4955 46.6208 22.4282 46.3965 22.4282C46.0156 22.4282 45.657 22.5628 45.3208 22.8542C45.0518 23.1006 44.8725 23.3697 44.8052 23.661C44.7155 23.9972 44.7604 24.2886 44.9174 24.5353C45.0967 24.7817 45.3433 24.8939 45.6795 24.8939C45.9035 24.8939 46.1278 24.8266 46.3742 24.7145L46.5088 24.2886C46.4416 24.3334 46.3742 24.3783 46.3071 24.4231C46.2399 24.4679 46.195 24.4904 46.1278 24.5129C46.0381 24.5577 45.9261 24.5801 45.7916 24.5801C45.545 24.5801 45.3657 24.4904 45.2536 24.3335C45.1414 24.1542 45.119 23.9525 45.1863 23.706C45.2536 23.4595 45.4104 23.2352 45.6123 23.0784C45.8363 22.8991 46.0606 22.8094 46.307 22.8094C46.5312 22.8094 46.7105 22.8992 46.8675 23.0784L46.9794 22.6077V22.6076ZM50.6778 22.8317L50.7675 22.4956H49.333L49.2433 22.8317H49.7813L49.2209 24.8714H49.5795L50.1399 22.8317H50.6779H50.6778ZM51.126 23.661C51.0139 24.042 51.0588 24.3558 51.2605 24.5801C51.4399 24.8041 51.6864 24.8939 52.0001 24.8939C52.3364 24.8939 52.6726 24.7817 52.9865 24.5353C53.3002 24.2888 53.502 24.0197 53.5916 23.6611C53.6813 23.325 53.6364 23.0336 53.4795 22.787C53.3001 22.5405 53.0536 22.4284 52.7174 22.4284C52.3812 22.4284 52.045 22.5405 51.7311 22.787C51.4398 23.0334 51.238 23.3249 51.126 23.661ZM51.4847 23.661C51.5519 23.4146 51.7088 23.2127 51.9106 23.0335C52.1347 22.8541 52.3589 22.7645 52.6054 22.7645C52.8518 22.7645 53.0537 22.8542 53.1657 23.0335C53.2778 23.2128 53.3002 23.4145 53.233 23.661C53.1657 23.9075 53.0089 24.1318 52.8071 24.2886C52.583 24.4679 52.3588 24.5352 52.1123 24.5352C51.8882 24.5352 51.7089 24.4454 51.5743 24.2886C51.4398 24.1541 51.4174 23.93 51.4847 23.661ZM54.9589 22.4956L54.2865 24.8714H55.3398L55.4296 24.5353H54.7347L55.295 22.4956H54.959H54.9589ZM56.9087 22.4956L56.2588 24.8714H57.3122L57.402 24.5353H56.7071L57.2674 22.4956H56.9088H56.9087ZM62.1312 22.6076C61.9519 22.4955 61.7726 22.4282 61.5709 22.4282C61.1899 22.4282 60.8313 22.5628 60.4951 22.8542C60.2262 23.1006 60.0468 23.3697 59.9796 23.661C59.8899 23.9972 59.9347 24.2886 60.0916 24.5353C60.2711 24.7817 60.5175 24.8939 60.8538 24.8939C61.0779 24.8939 61.3021 24.8266 61.5486 24.7145L61.6607 24.2886C61.5934 24.3334 61.5262 24.3783 61.4591 24.4231C61.3917 24.4679 61.3469 24.4904 61.2796 24.5129C61.19 24.5577 61.078 24.5801 60.9434 24.5801C60.697 24.5801 60.5175 24.4904 60.4055 24.3335C60.2934 24.1542 60.2486 23.9525 60.3383 23.706C60.4055 23.4595 60.5623 23.2352 60.7642 23.0784C60.9882 22.8991 61.2125 22.8094 61.459 22.8094C61.683 22.8094 61.8624 22.8992 62.0193 23.0784L62.1312 22.6077V22.6076ZM62.7141 23.661C62.6019 24.042 62.6468 24.3558 62.8486 24.5801C63.0279 24.8041 63.2745 24.8939 63.5882 24.8939C63.9468 24.8939 64.2606 24.7817 64.5744 24.5353C64.8882 24.2888 65.09 24.0197 65.1796 23.6611C65.2693 23.325 65.2468 23.0336 65.0675 22.787C64.8881 22.5405 64.6415 22.4284 64.3054 22.4284C63.9692 22.4284 63.633 22.5405 63.3191 22.787C63.0278 23.0334 62.8261 23.3249 62.7141 23.661ZM63.0951 23.661C63.1623 23.4146 63.3191 23.2127 63.521 23.0335C63.745 22.8541 63.9693 22.7645 64.2157 22.7645C64.4622 22.7645 64.6416 22.8542 64.7761 23.0335C64.8882 23.2128 64.933 23.4145 64.8433 23.661C64.7761 23.9075 64.6192 24.1318 64.395 24.2886C64.1709 24.4679 63.9467 24.5352 63.7002 24.5352C63.4762 24.5352 63.2968 24.4454 63.1623 24.2886C63.0502 24.1541 63.0054 23.93 63.0951 23.661ZM66.5468 22.4956L65.8743 24.8714H66.9278L67.0175 24.5353H66.3227L66.8831 22.4956H66.5469H66.5468ZM68.5192 22.4956L67.8468 24.8714H68.9002L68.9899 24.5353H68.2951L68.8555 22.4956H68.5193H68.5192ZM71.7917 22.4956H70.4916L69.8192 24.8714H71.1416L71.2314 24.5353H70.2675L70.4916 23.7507H71.4106L71.5003 23.4145H70.5813L70.7382 22.8542H71.6797L71.7918 22.4956H71.7917ZM74.5261 22.6076C74.3467 22.4955 74.1675 22.4282 73.9657 22.4282C73.5847 22.4282 73.2262 22.5628 72.89 22.8542C72.621 23.1006 72.4417 23.3697 72.3744 23.661C72.2847 23.9972 72.3295 24.2886 72.4865 24.5353C72.6658 24.7817 72.9124 24.8939 73.2486 24.8939C73.4727 24.8939 73.6969 24.8266 73.9434 24.7145L74.078 24.2886C74.0107 24.3334 73.9434 24.3783 73.8763 24.4231C73.809 24.4679 73.7642 24.4904 73.6969 24.5129C73.5848 24.5577 73.4728 24.5801 73.3607 24.5801C73.1142 24.5801 72.9348 24.4904 72.8228 24.3335C72.7106 24.1542 72.6658 23.9525 72.7555 23.706C72.8228 23.4595 72.9796 23.2352 73.1814 23.0784C73.4055 22.8991 73.6298 22.8094 73.8762 22.8094C74.1003 22.8094 74.2796 22.8992 74.4366 23.0784L74.5261 22.6077V22.6076ZM76.7003 22.8317L76.79 22.4956H75.3555L75.2659 22.8317H75.8038L75.2435 24.8714H75.602L76.1625 22.8317H76.7004H76.7003ZM77.6642 22.4956L76.9918 24.8714H77.3504L78.0227 22.4956H77.6642ZM78.7176 23.661C78.6055 24.042 78.6504 24.3558 78.8521 24.5801C79.0315 24.8041 79.2781 24.8939 79.5917 24.8939C79.9279 24.8939 80.2641 24.7817 80.578 24.5353C80.8918 24.2888 81.0936 24.0197 81.1831 23.6611C81.2729 23.325 81.228 23.0336 81.0711 22.787C80.8917 22.5405 80.6452 22.4284 80.3089 22.4284C79.9727 22.4284 79.6365 22.5405 79.3227 22.787C79.0089 23.0334 78.8071 23.3249 78.7176 23.661ZM79.0762 23.661C79.1434 23.4146 79.2779 23.2127 79.5021 23.0335C79.7262 22.8541 79.9504 22.7645 80.1969 22.7645C80.4433 22.7645 80.6228 22.8542 80.7572 23.0335C80.8693 23.2128 80.9143 23.4145 80.8245 23.661C80.7572 23.9075 80.6004 24.1318 80.3762 24.2886C80.1521 24.4679 79.9279 24.5352 79.6814 24.5352C79.4573 24.5352 79.2779 24.4454 79.1434 24.2886C79.0313 24.1541 79.0089 23.93 79.0762 23.661ZM82.2366 24.8714L82.7073 23.2127L83.94 25.006L84.6573 22.4956H84.2986L83.8279 24.1542L82.5952 22.3387L81.878 24.8715H82.2366V24.8714Z" fill="#6D6E71"/>
<path d="M94.8681 6.71289V25.1279H94.3389V6.71289H94.8681Z" fill="#6D6E71"/>
</svg>
